<svg   viewBox="0 0 24 24" fill="none" xmlns="http://www.w3.org/2000/svg">
<path fill-rule="evenodd" clip-rule="evenodd" d="M12 3.99658C7.02789 3.99658 2.99622 7.35666 2.99622 11.4968C3.07137 13.9951 4.44922 16.2717 6.62773 17.497C6.41133 18.085 6.11043 18.6384 5.7345 19.1398C5.527 19.4427 5.53214 19.8433 5.74732 20.1409C5.96251 20.4384 6.34137 20.5687 6.69406 20.4665C7.89689 20.1163 9.02904 19.558 10.0391 18.817C10.6857 18.9382 11.3422 18.9985 12 18.997C16.972 18.997 21.0037 15.6369 21.0037 11.4968C21.0037 7.35667 16.972 3.99658 12 3.99658Z" stroke="currentColor" stroke-width="1.5" stroke-linecap="round" stroke-linejoin="round"/>
<path d="M8.99878 9.99923H15.0013" stroke="currentColor" stroke-width="1.5" stroke-linecap="round" stroke-linejoin="round"/>
<path d="M8.99878 13.0007H12" stroke="currentColor" stroke-width="1.5" stroke-linecap="round" stroke-linejoin="round"/>
</svg>
