<svg   viewBox="0 0 26 28" fill="none" xmlns="http://www.w3.org/2000/svg">
<path d="M18.3307 1.66699V7.00032" stroke="currentColor" stroke-width="2" stroke-linecap="round" stroke-linejoin="round"/>
<path d="M7.66545 1.66699V7.00032" stroke="currentColor" stroke-width="2" stroke-linecap="round" stroke-linejoin="round"/>
<path d="M0.998901 11.0007H24.9989" stroke="currentColor" stroke-width="2" stroke-linecap="round" stroke-linejoin="round"/>
<path fill-rule="evenodd" clip-rule="evenodd" d="M22.3322 4.33398H3.66557C2.19223 4.33398 0.998901 5.52732 0.998901 7.00065V24.334C0.998901 25.8073 2.19223 27.0007 3.66557 27.0007H22.3322C23.8056 27.0007 24.9989 25.8073 24.9989 24.334V7.00065C24.9989 5.52732 23.8056 4.33398 22.3322 4.33398Z" stroke="currentColor" stroke-width="2" stroke-linecap="round" stroke-linejoin="round"/>
<path d="M5.66522 21.8333C5.48122 21.8333 5.33188 21.9827 5.33322 22.1667C5.33322 22.3507 5.48255 22.5 5.66655 22.5C5.85055 22.5 5.99988 22.3507 5.99988 22.1667C5.99988 21.9827 5.85055 21.8333 5.66522 21.8333" stroke="currentColor" stroke-width="2" stroke-linecap="round" stroke-linejoin="round"/>
</svg>
