<svg   viewBox="0 0 20 20" fill="none" xmlns="http://www.w3.org/2000/svg">
<path d="M9.0244 10.9158C8.76438 10.6888 8.36956 10.7155 8.14254 10.9755C7.91553 11.2356 7.94229 11.6304 8.20232 11.8574L9.0244 10.9158ZM14.1626 11.3866L14.5737 11.8574C14.5843 11.8481 14.5946 11.8385 14.6046 11.8285L14.1626 11.3866ZM9.56277 4.00409C9.31612 4.24557 9.31193 4.64128 9.55341 4.88793C9.79489 5.13458 10.1906 5.13877 10.4372 4.89729L9.56277 4.00409ZM10.9755 9.08409C11.2356 9.3111 11.6304 9.28434 11.8574 9.02432C12.0844 8.76429 12.0577 8.36947 11.7976 8.14246L10.9755 9.08409ZM5.83734 8.61327L5.42629 8.14246C5.41567 8.15173 5.40536 8.16137 5.39539 8.17134L5.83734 8.61327ZM10.4372 15.9958C10.6838 15.7543 10.688 15.3586 10.4465 15.112C10.2051 14.8653 9.80935 14.8611 9.56271 15.1026L10.4372 15.9958ZM8.20232 11.8574C10.0273 13.4507 12.7487 13.4507 14.5737 11.8574L13.7516 10.9158C12.3976 12.0979 10.3784 12.0979 9.0244 10.9158L8.20232 11.8574ZM14.6046 11.8285L15.9912 10.4419L15.1073 9.558L13.7207 10.9446L14.6046 11.8285ZM15.9959 10.4372C17.7403 8.65535 17.7252 5.80124 15.962 4.03798L15.0781 4.92186C16.3568 6.20062 16.3678 8.27048 15.1027 9.56271L15.9959 10.4372ZM15.962 4.03798C14.1987 2.27472 11.3446 2.25961 9.56277 4.00409L10.4372 4.89729C11.7295 3.63215 13.7993 3.64311 15.0781 4.92186L15.962 4.03798ZM11.7976 8.14246C9.97267 6.54919 7.25126 6.54919 5.42629 8.14246L6.24838 9.08409C7.6024 7.90198 9.62153 7.90198 10.9755 9.08409L11.7976 8.14246ZM5.39539 8.17134L4.00874 9.55803L4.89264 10.4419L6.27928 9.05521L5.39539 8.17134ZM4.00409 9.56272C2.25961 11.3446 2.27472 14.1987 4.03798 15.9619L4.92186 15.078C3.64311 13.7993 3.63215 11.7294 4.89729 10.4372L4.00409 9.56272ZM4.03798 15.9619C5.80124 17.7252 8.65535 17.7403 10.4372 15.9958L9.56271 15.1026C8.27048 16.3678 6.20062 16.3568 4.92186 15.078L4.03798 15.9619Z" fill="currentColor"/>
</svg>
