<svg   viewBox="0 0 20 20" fill="none" xmlns="http://www.w3.org/2000/svg">
<path d="M9.99924 5.3125C9.87257 5.3125 9.77007 5.415 9.77174 5.54166C9.77174 5.66833 9.87424 5.77083 10.0009 5.77083C10.1276 5.77083 10.2301 5.66833 10.2301 5.54166C10.2284 5.415 10.1267 5.3125 9.99924 5.3125" stroke="currentColor" stroke-width="1.24999" stroke-linecap="round" stroke-linejoin="round"/>
<path d="M5.77017 9.99899C5.77017 9.87233 5.66767 9.76983 5.54184 9.77149C5.41517 9.77149 5.31267 9.87399 5.31267 10.0007C5.31267 10.1273 5.41517 10.2298 5.54184 10.2298C5.6685 10.2298 5.77017 10.1265 5.77017 9.99899" stroke="currentColor" stroke-width="1.24999" stroke-linecap="round" stroke-linejoin="round"/>
<path d="M13.3144 6.68495C13.2252 6.59578 13.0802 6.59578 12.9919 6.68578C12.9027 6.77495 12.9027 6.91995 12.9919 7.00911C13.081 7.09828 13.226 7.09828 13.3152 7.00911C13.4044 6.91911 13.4044 6.77495 13.3144 6.68495" stroke="currentColor" stroke-width="1.24999" stroke-linecap="round" stroke-linejoin="round"/>
<path d="M7.0087 12.9906C6.91953 12.9014 6.77454 12.9014 6.6862 12.9914C6.59704 13.0806 6.59704 13.2256 6.6862 13.3148C6.77537 13.4039 6.92037 13.4039 7.00953 13.3148C7.0987 13.2256 7.0987 13.0806 7.0087 12.9906" stroke="currentColor" stroke-width="1.24999" stroke-linecap="round" stroke-linejoin="round"/>
<path d="M7.00946 7.00846C7.09863 6.91929 7.09863 6.77429 7.00863 6.68596C6.91946 6.59679 6.77446 6.59679 6.6853 6.68596C6.59613 6.77512 6.59613 6.92012 6.6853 7.00929C6.77446 7.09846 6.91946 7.09846 7.00946 7.00846" stroke="currentColor" stroke-width="1.24999" stroke-linecap="round" stroke-linejoin="round"/>
<path fill-rule="evenodd" clip-rule="evenodd" d="M10.0003 17.5C5.78783 17.5 2.38619 14.0267 2.50369 9.78756C2.61202 5.87425 5.8745 2.61178 9.7878 2.50344C14.0269 2.38594 17.5002 5.78759 17.5002 10.0001V10.8334C17.5002 11.7542 16.7544 12.5 15.8336 12.5H14.1144C13.0069 12.5 12.2078 13.56 12.512 14.6242L12.7261 15.375C13.0311 16.44 12.2311 17.5 11.1245 17.5H10.0003Z" stroke="currentColor" stroke-width="1.24999" stroke-linecap="round" stroke-linejoin="round"/>
</svg>
