<svg   viewBox="0 0 13 18" fill="none" xmlns="http://www.w3.org/2000/svg">
<path d="M8.53 4.52002L4.47 7.56002" stroke="currentColor" stroke-width="1.5" stroke-linecap="round" stroke-linejoin="round"/>
<path d="M11.4048 1.64216C12.1983 2.4357 12.1983 3.7223 11.4048 4.51584C10.6113 5.30938 9.32466 5.30938 8.53112 4.51584C7.73758 3.72229 7.73758 2.4357 8.53112 1.64216C9.32467 0.848611 10.6113 0.848611 11.4048 1.64216" stroke="currentColor" stroke-width="1.5" stroke-linecap="round" stroke-linejoin="round"/>
<path d="M8.53 13.48L4.47 10.44" stroke="currentColor" stroke-width="1.5" stroke-linecap="round" stroke-linejoin="round"/>
<path d="M11.4048 13.4842C12.1983 14.2777 12.1983 15.5643 11.4048 16.3579C10.6113 17.1514 9.32466 17.1514 8.53112 16.3579C7.73758 15.5643 7.73758 14.2777 8.53112 13.4842C9.32467 12.6907 10.6113 12.6907 11.4048 13.4842" stroke="currentColor" stroke-width="1.5" stroke-linecap="round" stroke-linejoin="round"/>
<path d="M4.46543 7.5646C5.25819 8.35737 5.25819 9.64269 4.46543 10.4355C3.67267 11.2282 2.38734 11.2282 1.59458 10.4355C0.801817 9.64269 0.801817 8.35736 1.59458 7.5646C2.38734 6.77184 3.67267 6.77184 4.46543 7.5646" stroke="currentColor" stroke-width="1.5" stroke-linecap="round" stroke-linejoin="round"/>
</svg>
