<svg   viewBox="0 0 26 28" fill="none" xmlns="http://www.w3.org/2000/svg">
<path d="M18.3307 1.66699V7.00032" stroke="currentColor" stroke-width="2" stroke-linecap="round" stroke-linejoin="round"/>
<path d="M7.66667 1.66699V7.00032" stroke="currentColor" stroke-width="2" stroke-linecap="round" stroke-linejoin="round"/>
<path d="M1 11.0007H25" stroke="currentColor" stroke-width="2" stroke-linecap="round" stroke-linejoin="round"/>
<path fill-rule="evenodd" clip-rule="evenodd" d="M22.3333 4.33398H3.66667C2.19333 4.33398 1 5.52732 1 7.00065V24.334C1 25.8073 2.19333 27.0007 3.66667 27.0007H22.3333C23.8067 27.0007 25 25.8073 25 24.334V7.00065C25 5.52732 23.8067 4.33398 22.3333 4.33398Z" stroke="currentColor" stroke-width="2" stroke-linecap="round" stroke-linejoin="round"/>
<path d="M20.6653 14.8333C20.4813 14.8333 20.332 14.9827 20.3333 15.1667C20.3333 15.3507 20.4827 15.5 20.6667 15.5C20.8507 15.5 21 15.3507 21 15.1667C21 14.9827 20.8507 14.8333 20.6653 14.8333" stroke="currentColor" stroke-width="2" stroke-linecap="round" stroke-linejoin="round"/>
</svg>
